# xmcd CD database file
#
# Track frame offsets:
#	150
#	17715
#	29970
#	44121
#	57907
#	74106
#	89519
#	102509
#	119746
#	140580
#	159771
#	179498
#	194885
#	205805
#	222417
#	233245
#	248071
#	263505
#	280649
#
# Disc length: 3950 seconds
#
# Revision: 7
# Processed by: cddbd v1.5.2PL0 Copyright (c) Steve Scherf et al.
# Submitted via: CDex 1.79
#
DISCID=330f6c13
DTITLE=Teresa Teng - Teresa Teng - Forever Collection Vol. 4
DYEAR=2001
DGENRE=Blues
TTITLE0=You and Me
TTITLE1=You After the Twilgiht
TTITLE2=Fisherman
TTITLE3=If I Am Serious
TTITLE4=Drizzling
TTITLE5=Where Comes the Breeze
TTITLE6=Kitchen Smoke Curls Upward Again
TTITLE7=Deep in My Heart
TTITLE8=See You Tomorrow
TTITLE9=Amorous Rose
TTITLE10=Jin-Shang Cape
TTITLE11=Sweet Drizzle
TTITLE12=No Matter Who You Are
TTITLE13=God Would Memorize Our Love
TTITLE14=Ask The Heaven Without Words
TTITLE15=Night Mist
TTITLE16=Adoration
TTITLE17=Think of You Tonight
TTITLE18=Walk Up the Wind Frost
EXTD=YEAR: 2001
EXTT0=
EXTT1=
EXTT2=
EXTT3=
EXTT4=
EXTT5=
EXTT6=
EXTT7=
EXTT8=
EXTT9=
EXTT10=
EXTT11=
EXTT12=
EXTT13=
EXTT14=
EXTT15=
EXTT16=
EXTT17=
EXTT18=
PLAYORDER=
